<svg width="671" height="184" viewBox="0 0 671 184" fill="none" xmlns="http://www.w3.org/2000/svg">
<path d="M257.718 80.2274C251.781 80.2274 246.247 79.2746 241.116 77.3688C236.059 75.3898 231.661 72.6045 227.923 69.013C224.185 65.4214 221.253 61.2068 219.127 56.3692C217.075 51.5316 216.049 46.2175 216.049 40.4271C216.049 34.6366 217.075 29.3226 219.127 24.485C221.253 19.6473 224.185 15.4328 227.923 11.8412C231.734 8.24964 236.169 5.501 241.226 3.59527C246.284 1.61625 251.818 0.62674 257.828 0.62674C264.498 0.62674 270.508 1.79949 275.859 4.145C281.283 6.41721 285.827 9.78888 289.492 14.26L278.058 24.8148C275.419 21.8096 272.487 19.574 269.262 18.1081C266.037 16.5689 262.519 15.7992 258.708 15.7992C255.116 15.7992 251.818 16.3856 248.812 17.5584C245.807 18.7311 243.205 20.417 241.006 22.6159C238.807 24.8148 237.085 27.4168 235.839 30.422C234.666 33.4272 234.08 36.7622 234.08 40.4271C234.08 44.0919 234.666 47.4269 235.839 50.4321C237.085 53.4373 238.807 56.0394 241.006 58.2383C243.205 60.4372 245.807 62.123 248.812 63.2958C251.818 64.4685 255.116 65.0549 258.708 65.0549C262.519 65.0549 266.037 64.3219 269.262 62.856C272.487 61.3168 275.419 59.0079 278.058 55.9294L289.492 66.4842C285.827 70.9553 281.283 74.3636 275.859 76.7092C270.508 79.0547 264.461 80.2274 257.718 80.2274Z" fill="#0D5482"/>
<path d="M335.284 80.2274C324.363 80.2274 315.823 77.1856 309.666 71.1019C303.51 65.0183 300.431 56.3326 300.431 45.0448V1.94608H318.242V44.3851C318.242 51.7148 319.745 56.9922 322.75 60.2173C325.755 63.4424 329.97 65.0549 335.394 65.0549C340.818 65.0549 345.032 63.4424 348.038 60.2173C351.043 56.9922 352.545 51.7148 352.545 44.3851V1.94608H370.137V45.0448C370.137 56.3326 367.058 65.0183 360.901 71.1019C354.744 77.1856 346.205 80.2274 335.284 80.2274Z" fill="#0D5482"/>
<path d="M387.737 78.9081V1.94608H405.549V78.9081H387.737Z" fill="#0D5482"/>
<path d="M423.813 78.9081V1.94608H458.776C467.132 1.94608 474.498 3.55862 480.875 6.7837C487.252 9.93547 492.236 14.3699 495.828 20.0871C499.419 25.8043 501.215 32.5843 501.215 40.4271C501.215 48.1966 499.419 54.9766 495.828 60.767C492.236 66.4842 487.252 70.9553 480.875 74.1804C474.498 77.3322 467.132 78.9081 458.776 78.9081H423.813ZM441.624 64.2853H457.896C463.027 64.2853 467.462 63.3324 471.2 61.4267C475.011 59.4477 477.943 56.6624 479.996 53.0708C482.121 49.4793 483.184 45.2647 483.184 40.4271C483.184 35.5162 482.121 31.3016 479.996 27.7833C477.943 24.1918 475.011 21.4431 471.2 19.5374C467.462 17.5584 463.027 16.5689 457.896 16.5689H441.624V64.2853Z" fill="#0D5482"/>
<path d="M503.459 78.9081L537.762 1.94608H555.353L589.766 78.9081H571.075L542.929 10.9616H549.966L521.71 78.9081H503.459ZM520.61 62.4162L525.338 48.8929H564.918L569.756 62.4162H520.61Z" fill="#0D5482"/>
<path d="M597.751 78.9081V1.94608H631.064C637.954 1.94608 643.891 3.08219 648.876 5.3544C653.86 7.55331 657.708 10.7417 660.42 14.9197C663.132 19.0976 664.488 24.0818 664.488 29.8723C664.488 35.5895 663.132 40.537 660.42 44.715C657.708 48.8196 653.86 51.9714 648.876 54.1703C643.891 56.3692 637.954 57.4687 631.064 57.4687H607.646L615.562 49.6625V78.9081H597.751ZM646.677 78.9081L627.436 50.9819H646.457L665.917 78.9081H646.677ZM615.562 51.6415L607.646 43.2857H630.075C635.572 43.2857 639.677 42.1129 642.389 39.7674C645.101 37.3486 646.457 34.0502 646.457 29.8723C646.457 25.6211 645.101 22.3227 642.389 19.9772C639.677 17.6317 635.572 16.4589 630.075 16.4589H607.646L615.562 7.9931V51.6415Z" fill="#0D5482"/>
<path d="M218.527 181.908V114.249H250.52C257.994 114.249 264.567 115.635 270.237 118.405C275.908 121.176 280.322 125.075 283.479 130.101C286.701 135.127 288.312 141.119 288.312 148.079C288.312 154.973 286.701 160.966 283.479 166.057C280.322 171.083 275.908 174.981 270.237 177.752C264.567 180.523 257.994 181.908 250.52 181.908H218.527ZM237.664 166.636H249.746C253.613 166.636 256.963 165.928 259.799 164.51C262.698 163.028 264.953 160.902 266.564 158.131C268.175 155.296 268.981 151.945 268.981 148.079C268.981 144.148 268.175 140.797 266.564 138.026C264.953 135.256 262.698 133.161 259.799 131.744C256.963 130.262 253.613 129.521 249.746 129.521H237.664V166.636Z" fill="#0D5482"/>
<path d="M315.972 140.443H347.385V154.748H315.972V140.443ZM317.325 167.12H352.701V181.908H298.381V114.249H351.445V129.037H317.325V167.12Z" fill="#0D5482"/>
<path d="M412.23 181.908L383.33 114.249H404.015L428.372 172.822H416.193L441.13 114.249H460.075L431.078 181.908H412.23Z" fill="#0D5482"/>
<path d="M497.211 183.261C491.798 183.261 486.804 182.391 482.229 180.652C477.654 178.912 473.659 176.463 470.244 173.306C466.893 170.084 464.284 166.347 462.415 162.094C460.546 157.841 459.612 153.169 459.612 148.079C459.612 142.988 460.546 138.316 462.415 134.064C464.284 129.811 466.893 126.106 470.244 122.948C473.659 119.726 477.654 117.246 482.229 115.506C486.804 113.766 491.798 112.896 497.211 112.896C502.688 112.896 507.682 113.766 512.193 115.506C516.768 117.246 520.731 119.726 524.081 122.948C527.432 126.106 530.042 129.811 531.91 134.064C533.843 138.316 534.81 142.988 534.81 148.079C534.81 153.169 533.843 157.873 531.91 162.19C530.042 166.443 527.432 170.148 524.081 173.306C520.731 176.463 516.768 178.912 512.193 180.652C507.682 182.391 502.688 183.261 497.211 183.261ZM497.211 167.41C499.788 167.41 502.173 166.959 504.363 166.057C506.619 165.154 508.552 163.866 510.163 162.19C511.838 160.451 513.127 158.389 514.029 156.004C514.996 153.62 515.479 150.978 515.479 148.079C515.479 145.115 514.996 142.473 514.029 140.153C513.127 137.769 511.838 135.739 510.163 134.064C508.552 132.324 506.619 131.003 504.363 130.101C502.173 129.199 499.788 128.748 497.211 128.748C494.633 128.748 492.217 129.199 489.962 130.101C487.771 131.003 485.838 132.324 484.162 134.064C482.552 135.739 481.263 137.769 480.296 140.153C479.394 142.473 478.943 145.115 478.943 148.079C478.943 150.978 479.394 153.62 480.296 156.004C481.263 158.389 482.552 160.451 484.162 162.19C485.838 163.866 487.771 165.154 489.962 166.057C492.217 166.959 494.633 167.41 497.211 167.41Z" fill="#0D5482"/>
<path d="M578.566 183.261C573.218 183.261 568.256 182.424 563.681 180.748C559.171 179.008 555.24 176.56 551.889 173.402C548.603 170.245 546.026 166.54 544.157 162.287C542.288 157.97 541.354 153.234 541.354 148.079C541.354 142.924 542.288 138.22 544.157 133.967C546.026 129.65 548.603 125.912 551.889 122.755C555.24 119.597 559.171 117.181 563.681 115.506C568.256 113.766 573.218 112.896 578.566 112.896C584.817 112.896 590.39 113.991 595.288 116.182C600.249 118.373 604.373 121.531 607.66 125.655L595.481 136.673C593.29 134.096 590.874 132.13 588.232 130.777C585.654 129.424 582.755 128.748 579.533 128.748C576.762 128.748 574.217 129.199 571.897 130.101C569.577 131.003 567.58 132.324 565.904 134.064C564.293 135.739 563.005 137.769 562.038 140.153C561.136 142.537 560.685 145.179 560.685 148.079C560.685 150.978 561.136 153.62 562.038 156.004C563.005 158.389 564.293 160.451 565.904 162.19C567.58 163.866 569.577 165.154 571.897 166.057C574.217 166.959 576.762 167.41 579.533 167.41C582.755 167.41 585.654 166.733 588.232 165.38C590.874 164.027 593.29 162.061 595.481 159.484L607.66 170.503C604.373 174.562 600.249 177.72 595.288 179.975C590.39 182.166 584.817 183.261 578.566 183.261Z" fill="#0D5482"/>
<path d="M633.784 140.443H665.197V154.748H633.784V140.443ZM635.137 167.12H670.513V181.908H616.192V114.249H669.256V129.037H635.137V167.12ZM622.282 108.74L634.847 94.0482H650.698L663.264 108.74H651.085L637.457 96.6579H648.089L634.46 108.74H622.282Z" fill="#0D5482"/>
<path d="M0 182.632H18.2506V73.9259L87.7793 22.0883L157.308 73.9259V164.412H95.7782V149.187H79.5736V182.632H175.559V67.0148L87.7793 0L0 67.0148V182.632Z" fill="#0D5482"/>
<path d="M123.091 86.6862C123.72 86.6836 124.344 86.8059 124.926 87.0461C125.508 87.2864 126.037 87.6399 126.482 88.0863C126.926 88.5347 127.277 89.0669 127.516 89.6522C127.755 90.2376 127.877 90.8646 127.874 91.4973V120.822H138.047V91.5177C138.044 89.5428 137.654 87.588 136.899 85.7648C136.144 83.9417 135.04 82.2861 133.649 80.8926C132.265 79.491 130.621 78.3776 128.809 77.6158C126.998 76.8541 125.055 76.459 123.091 76.4531V86.6862ZM53.3623 86.6862C52.734 86.6834 52.1114 86.8057 51.5303 87.0459C50.9492 87.2862 50.4211 87.6398 49.9764 88.0863C49.5317 88.5343 49.1794 89.0663 48.9397 89.6516C48.7 90.237 48.5776 90.8642 48.5796 91.4973V120.822H38.3966V91.5177C38.3988 89.5432 38.788 87.5884 39.5418 85.7653C40.2956 83.9421 41.3992 82.2863 42.7896 80.8926C44.1743 79.4938 45.8194 78.3832 47.6309 77.6241C49.4424 76.8649 51.3848 76.4722 53.3471 76.4684V86.7015L53.3623 86.6862Z" fill="#0DA1D6"/>
<path fill-rule="evenodd" clip-rule="evenodd" d="M59.6746 67C61.5298 67.005 63.3073 67.7038 64.6185 68.9436C65.9296 70.1834 66.6677 71.8632 66.6713 73.6157V89.3843C66.6677 91.1368 65.9296 92.8166 64.6185 94.0564C63.3073 95.2961 61.5298 95.995 59.6746 96C57.8188 95.995 56.0406 95.2964 54.7284 94.0568C53.4161 92.8172 52.6766 91.1373 52.6713 89.3843V73.6157C52.6766 71.8627 53.4161 70.1828 54.7284 68.9432C56.0406 67.7036 57.8188 67.005 59.6746 67V67Z" fill="#0D5482"/>
<path fill-rule="evenodd" clip-rule="evenodd" d="M117.178 67C118.9 67.0067 120.55 67.7063 121.766 68.9459C122.983 70.1855 123.668 71.8643 123.671 73.6157V89.3843C123.668 91.1368 122.982 92.8166 121.764 94.0564C120.546 95.2961 118.895 95.995 117.171 96V96C115.448 95.995 113.796 95.2961 112.578 94.0564C111.36 92.8166 110.675 91.1368 110.671 89.3843V73.6157C110.675 71.8632 111.36 70.1834 112.578 68.9436C113.796 67.7038 115.448 67.005 117.171 67H117.178Z" fill="#0D5482"/>
<path d="M140 111.913C140.003 118.197 138.659 124.42 136.045 130.222C132.095 138.988 125.427 146.482 116.879 151.764C108.331 157.045 98.2836 159.878 87.9975 159.908C81.1893 159.911 74.4477 158.671 68.1615 156.257C58.6641 152.611 50.5451 146.457 44.8234 138.567C39.1017 130.677 36.0322 121.402 36 111.908L49.5494 111.913C49.5452 116.559 50.537 121.16 52.4676 125.451C54.4182 129.763 57.2654 133.68 60.8481 136.982C66.2233 141.934 73.0673 145.305 80.5164 146.671C87.9654 148.036 95.6858 147.334 102.703 144.653C109.72 141.972 115.72 137.432 119.944 131.607C124.169 125.782 126.429 118.932 126.44 111.922L140 111.913Z" fill="#0D5482"/>
</svg>
